<svg width="415" height="422" viewBox="0 0 415 422" fill="none" xmlns="http://www.w3.org/2000/svg">
<path d="M129.688 92.3125C129.688 66.8211 150.01 46.1562 175.078 46.1562H201.016H233.438C233.438 31.5907 216.695 19.7812 188.047 19.7812H136.172C123.923 19.7812 112.394 25.6431 105.047 35.6063C99.9956 42.4572 97.2656 50.7851 97.2656 59.3438V131.875L129.688 112.094V92.3125Z" fill="#201008"/>
<path d="M90.7813 192.472V131.875H77.8125C63.4885 131.875 51.875 143.684 51.875 158.25V184.625C51.875 199.191 63.4885 211 77.8125 211H95.3787C92.4283 205.349 90.7813 199.019 90.7813 192.472Z" fill="#606060"/>
<path d="M265.859 184.625V158.25C265.859 143.684 254.246 131.875 239.922 131.875H233.438V184.625H265.859Z" fill="#606060"/>
<path d="M201.016 65.9375V46.1562H175.078C150.01 46.1562 129.688 66.8211 129.688 92.3125V112.094H155.625C180.694 112.094 201.016 91.4289 201.016 65.9375Z" fill="#201008"/>
<path d="M201.016 65.9375C201.016 91.4289 180.694 112.094 155.625 112.094H194.531C219.6 112.094 239.922 91.4289 239.922 65.9375V46.1562H233.438H201.016V65.9375Z" fill="#371D11"/>
<path d="M194.531 112.094H233.438C240.408 112.094 246.99 110.445 252.891 107.59C268.213 100.179 278.828 84.3341 278.828 65.9375V46.1562H239.922V65.9375C239.922 91.4289 219.6 112.094 194.531 112.094Z" fill="#201008"/>
<path d="M123.203 19.7812H110.234C97.9854 19.7812 86.4562 25.6431 79.1094 35.6063C74.058 42.4572 71.3281 50.7851 71.3281 59.3438V131.875H77.8125H97.2656V59.3438C97.2656 50.7851 99.9956 42.4572 105.047 35.6063C112.394 25.6431 123.923 19.7812 136.172 19.7812H123.203Z" fill="#371D11"/>
<path d="M71.3281 191.219V164.844C71.3281 152.566 79.6152 142.339 90.7812 139.398V131.875H77.8125C63.4885 131.875 51.875 143.684 51.875 158.25V184.625C51.875 199.191 63.4885 211 77.8125 211H80.2766C74.8362 206.167 71.3281 199.144 71.3281 191.219Z" fill="#878787"/>
<path d="M239.922 131.875H233.438V145.062C247.761 145.062 259.375 156.872 259.375 171.438V184.625H265.859V158.25C265.859 143.684 254.246 131.875 239.922 131.875Z" fill="#878787"/>
<path d="M265.859 285.865C283.905 293.297 298.281 301.77 298.281 309.906V402.219H25.9375V309.906C25.9375 288.055 129.688 263.75 129.688 263.75H194.531L265.859 285.865Z" fill="#919090"/>
<path d="M265.859 305.647L194.531 283.531H129.688C129.688 283.531 38.1281 304.987 27.0463 325.698L25.9375 309.906C25.9375 288.055 129.688 263.75 129.688 263.75H194.531L265.859 285.865C283.905 293.297 298.281 301.77 298.281 309.906L297.159 325.857C293.593 318.933 281.091 311.917 265.859 305.647Z" fill="#686666"/>
<path d="M123.203 112.094H233.438V192.472C233.438 204.215 228.308 215.345 219.438 222.862L188.942 239.854C184.098 242.558 178.67 243.969 173.146 243.969H151.066C145.548 243.969 140.114 242.558 135.271 239.854L104.775 222.862C95.9104 215.345 90.7812 204.208 90.7812 192.472V138.469L123.203 112.094Z" fill="#FCE0B9"/>
<path d="M135.277 239.854C140.121 242.558 145.548 243.969 151.073 243.969H173.152C178.67 243.969 184.104 242.558 188.948 239.854L194.531 236.742V276.937C176.628 295.143 147.591 295.143 129.688 276.937V236.742L135.277 239.854Z" fill="#FCE0B9"/>
<path d="M129.688 236.742L135.277 239.854C140.121 242.558 145.548 243.969 151.073 243.969H173.152C178.67 243.969 184.104 242.558 188.948 239.854L194.531 236.742V276.937C193.507 277.979 192.437 278.942 191.347 279.865L129.688 239.261V236.742Z" fill="#F5CBA1"/>
<path d="M175.078 164.844C171.499 164.844 168.594 167.798 168.594 171.438V243.969H173.146C178.664 243.969 184.098 242.558 188.942 239.854L219.438 222.862C228.308 215.345 233.438 204.208 233.438 192.472V164.844H175.078Z" fill="#F5CBA1"/>
<path d="M188.047 184.625V240.283V270.344V329.688H278.828V217.594C278.828 210.308 284.632 204.406 291.797 204.406C298.962 204.406 304.766 210.308 304.766 217.594V329.688H395.547V184.625H188.047Z" fill="#383838"/>
<path d="M291.797 204.406C284.632 204.406 278.828 210.308 278.828 217.594V329.688V375.844H304.766V329.688V217.594C304.766 210.308 298.962 204.406 291.797 204.406Z" fill="#383838"/>
<path d="M233.438 375.844V402.219H350.156V375.844H304.766H278.828H233.438Z" fill="#383838"/>
<path d="M155.625 98.9062H129.688V112.094H155.625C180.694 112.094 201.016 91.4289 201.016 65.9375V52.75C201.016 78.2414 180.694 98.9062 155.625 98.9062Z" fill="#3D2012"/>
<path d="M194.531 98.9062H187.36C179.176 107.056 167.984 112.094 155.625 112.094H194.531C219.6 112.094 239.922 91.4289 239.922 65.9375V52.75C239.922 78.2414 219.6 98.9062 194.531 98.9062Z" fill="#4D2817"/>
<path d="M252.891 94.4027C246.99 97.2578 240.408 98.9062 233.438 98.9062H226.266C218.083 107.056 206.89 112.094 194.531 112.094H233.438C240.408 112.094 246.99 110.445 252.891 107.59C268.213 100.179 278.828 84.3341 278.828 65.9375V52.75C278.828 71.1532 268.213 86.9913 252.891 94.4027Z" fill="#3D2012"/>
<path d="M64.8438 375.844L129.688 362.656H168.594C179.338 362.656 188.047 371.512 188.047 382.438V402.219H64.8438V375.844Z" fill="#FCE0B9"/>
<path d="M265.859 200.859V329.688H278.828V217.594C278.828 210.308 284.632 204.406 291.797 204.406C298.962 204.406 304.766 210.308 304.766 217.594V329.688H317.734V200.859C317.734 191.891 306.121 184.625 291.797 184.625C277.473 184.625 265.859 191.891 265.859 200.859Z" fill="#262626"/>
<path d="M233.438 389.031H350.156V402.219H233.438V389.031Z" fill="#262626"/>
<path d="M141.158 173.078C134.901 173.078 129.81 167.902 129.81 161.539C129.81 155.176 134.901 150 141.158 150C147.416 150 152.506 155.176 152.506 161.539C152.506 167.902 147.416 173.078 141.158 173.078ZM141.158 159.891C140.263 159.891 139.537 160.629 139.537 161.539C139.537 163.352 142.779 163.352 142.779 161.539C142.779 160.629 142.053 159.891 141.158 159.891Z" fill="white"/>
<g filter="url(#filter0_d_11_25)">
<path d="M144.867 173C140.529 173 137 169.187 137 164.5C137 159.813 140.529 156 144.867 156C149.206 156 152.735 159.813 152.735 164.5C152.735 169.187 149.206 173 144.867 173ZM144.867 163.286C144.247 163.286 143.743 163.83 143.743 164.5C143.743 165.836 143.5 163.336 143.5 162C143.5 161.33 145.488 163.286 144.867 163.286Z" fill="black"/>
<path d="M144.867 172.5C140.841 172.5 137.5 168.948 137.5 164.5C137.5 160.052 140.841 156.5 144.867 156.5C148.894 156.5 152.235 160.052 152.235 164.5C152.235 168.948 148.894 172.5 144.867 172.5ZM144.069 162.751C144.128 162.808 144.183 162.865 144.233 162.92C144.163 162.951 144.096 162.987 144.032 163.028C144.027 162.918 144.021 162.809 144.017 162.702C144.034 162.718 144.051 162.734 144.069 162.751ZM144.243 164.5C144.243 164.069 144.559 163.786 144.867 163.786C144.962 163.786 145.11 163.768 145.248 163.669C145.403 163.556 145.471 163.393 145.484 163.251C145.496 163.126 145.468 163.018 145.445 162.948C145.419 162.872 145.384 162.803 145.349 162.742C145.216 162.51 144.988 162.248 144.764 162.032C144.541 161.817 144.269 161.594 144.026 161.472C143.962 161.439 143.887 161.407 143.806 161.386C143.73 161.366 143.615 161.347 143.486 161.373C143.34 161.402 143.196 161.486 143.101 161.634C143.017 161.766 143 161.904 143 162C143 162.689 143.062 163.665 143.124 164.3C143.14 164.46 143.156 164.602 143.171 164.716C143.184 164.81 143.202 164.934 143.232 165.021C143.232 165.022 143.232 165.022 143.232 165.023C143.238 165.04 143.264 165.117 143.324 165.192C143.354 165.228 143.447 165.336 143.616 165.371C143.826 165.414 143.989 165.318 144.072 165.236C144.142 165.167 144.174 165.095 144.185 165.068C144.2 165.033 144.208 165.003 144.213 164.984C144.222 164.947 144.227 164.912 144.23 164.889C144.24 164.8 144.243 164.665 144.243 164.5Z" stroke="black"/>
<path d="M144.867 172.5C140.841 172.5 137.5 168.948 137.5 164.5C137.5 160.052 140.841 156.5 144.867 156.5C148.894 156.5 152.235 160.052 152.235 164.5C152.235 168.948 148.894 172.5 144.867 172.5ZM144.069 162.751C144.128 162.808 144.183 162.865 144.233 162.92C144.163 162.951 144.096 162.987 144.032 163.028C144.027 162.918 144.021 162.809 144.017 162.702C144.034 162.718 144.051 162.734 144.069 162.751ZM144.243 164.5C144.243 164.069 144.559 163.786 144.867 163.786C144.962 163.786 145.11 163.768 145.248 163.669C145.403 163.556 145.471 163.393 145.484 163.251C145.496 163.126 145.468 163.018 145.445 162.948C145.419 162.872 145.384 162.803 145.349 162.742C145.216 162.51 144.988 162.248 144.764 162.032C144.541 161.817 144.269 161.594 144.026 161.472C143.962 161.439 143.887 161.407 143.806 161.386C143.73 161.366 143.615 161.347 143.486 161.373C143.34 161.402 143.196 161.486 143.101 161.634C143.017 161.766 143 161.904 143 162C143 162.689 143.062 163.665 143.124 164.3C143.14 164.46 143.156 164.602 143.171 164.716C143.184 164.81 143.202 164.934 143.232 165.021C143.232 165.022 143.232 165.022 143.232 165.023C143.238 165.04 143.264 165.117 143.324 165.192C143.354 165.228 143.447 165.336 143.616 165.371C143.826 165.414 143.989 165.318 144.072 165.236C144.142 165.167 144.174 165.095 144.185 165.068C144.2 165.033 144.208 165.003 144.213 164.984C144.222 164.947 144.227 164.912 144.23 164.889C144.24 164.8 144.243 164.665 144.243 164.5Z" stroke="black" stroke-opacity="0.2"/>
</g>
<path d="M193.548 172.789C187.29 172.789 182.2 167.613 182.2 161.25C182.2 154.887 187.29 149.711 193.548 149.711C199.805 149.711 204.896 154.887 204.896 161.25C204.896 167.613 199.805 172.789 193.548 172.789ZM193.548 159.602C192.653 159.602 191.927 160.34 191.927 161.25C191.927 163.063 195.169 163.063 195.169 161.25C195.169 160.34 194.443 159.602 193.548 159.602Z" fill="white"/>
<path d="M198 173.214C193.662 173.214 190.133 169.401 190.133 164.714C190.133 160.027 193.662 156.214 198 156.214C202.338 156.214 205.867 160.027 205.867 164.714C205.867 169.401 202.338 173.214 198 173.214ZM198 163.5C197.38 163.5 196.876 164.044 196.876 164.714C196.876 166.05 196.434 164.836 196.434 163.5C196.434 162.83 198.62 163.5 198 163.5Z" fill="black"/>
<path d="M395.547 178.031H272.344V158.25C272.344 147.522 267.202 138.067 259.375 132.046V111.553C274.853 102.414 285.312 85.4154 285.312 65.9375V46.1562C285.312 42.5165 282.408 39.5625 278.828 39.5625H239.014C235.214 25.5903 219.055 13.1875 188.047 13.1875H136.172H110.234C96.0206 13.1875 82.4488 20.0912 73.9219 31.65C68.0665 39.5823 64.8438 49.4202 64.8438 59.3438V128.031C53.3988 133.128 45.3906 144.759 45.3906 158.25V184.625C45.3906 200.542 56.5502 213.862 71.3281 216.928V273.667C44.0808 283.38 19.4531 295.993 19.4531 309.906V402.219C19.4531 405.858 22.3581 408.812 25.9375 408.812H233.438H350.156C353.736 408.812 356.641 405.858 356.641 402.219V375.844C356.641 372.204 353.736 369.25 350.156 369.25H311.25V336.281H395.547C399.126 336.281 402.031 333.327 402.031 329.688V184.625C402.031 180.985 399.126 178.031 395.547 178.031ZM239.922 178.031V138.469C250.647 138.469 259.375 147.344 259.375 158.25V178.031H239.922ZM136.172 247.549C140.893 249.514 145.957 250.562 151.073 250.562H173.146C175.96 250.562 178.787 250.2 181.562 249.573V278.625C167.044 287.085 148.803 285.351 136.172 274.089V247.549ZM188.047 178.031C184.467 178.031 181.562 180.985 181.562 184.625V235.898C178.826 236.848 175.973 237.375 173.146 237.375H151.073C146.651 237.375 142.267 236.234 138.39 234.078L108.471 217.403C101.338 211.132 97.2656 202.079 97.2656 192.472V138.469C98.4912 138.469 99.5676 138.034 100.547 137.434L100.605 137.532L131.484 118.688H226.953V178.031H188.047ZM233.438 52.75V65.9375C233.438 87.7562 215.988 105.5 194.531 105.5H189.824C200.633 95.827 207.5 81.6966 207.5 65.9375V52.75H233.438ZM194.531 65.9375C194.531 87.7562 177.082 105.5 155.625 105.5H136.172V92.3125C136.172 70.4938 153.621 52.75 175.078 52.75H194.531V65.9375ZM246.406 125.947C244.312 125.512 242.14 125.281 239.922 125.281V118.233C242.133 117.949 244.292 117.514 246.406 116.953V125.947ZM272.344 65.9375C272.344 87.7562 254.894 105.5 233.438 105.5H228.73C239.539 95.827 246.406 81.6966 246.406 65.9375V52.75H272.344V65.9375ZM110.234 39.5625C116.323 31.3071 126.017 26.375 136.172 26.375H188.047C207.779 26.375 220.151 32.3292 224.8 39.5625H175.078C146.476 39.5625 123.203 63.2275 123.203 92.3125V108.362L103.75 120.23V59.3438C103.75 52.2555 106.052 45.2265 110.234 39.5625ZM77.8125 59.3438C77.8125 52.2555 80.1145 45.2265 84.2969 39.5625C89.0694 33.0874 96.0595 28.663 103.75 27.0476C102.362 28.485 101.059 30.0213 99.8594 31.65C94.004 39.5823 90.7812 49.4202 90.7812 59.3438V125.281H77.8125V59.3438ZM58.3594 184.625V158.25C58.3594 147.344 67.0873 138.469 77.8125 138.469H84.2969V192.472C84.2969 196.56 84.8869 200.549 85.8985 204.406H77.8125C67.0873 204.406 58.3594 195.531 58.3594 184.625ZM84.2969 217.594H91.6631C94.1142 221.418 97.0905 224.926 100.631 227.926C100.949 228.203 101.299 228.44 101.669 228.645L123.203 240.645V258.521C112.459 261.126 98.5041 264.792 84.2969 269.302V217.594ZM32.4219 309.906C32.4219 304.895 48.14 296.468 71.3281 287.91V367.799L63.5728 369.382L66.1212 382.312L71.3281 381.251V395.625H32.4219V309.906ZM181.562 395.625H84.2969V378.613L130.329 369.25H168.594C175.746 369.25 181.562 375.165 181.562 382.438V395.625ZM226.953 375.844V395.625H194.531V382.438C194.531 367.892 182.898 356.062 168.594 356.062H129.688C129.26 356.062 128.838 356.102 128.417 356.194L84.2969 365.162V283.366C96.2281 279.404 109.463 275.546 123.203 272.111V276.938C123.203 278.685 123.884 280.366 125.103 281.599C135.238 291.905 148.648 297.207 162.148 297.2C168.736 297.2 175.305 295.796 181.562 293.237V329.688C181.562 333.327 184.467 336.281 188.047 336.281H272.344V369.25H233.438C229.858 369.25 226.953 372.204 226.953 375.844ZM343.672 395.625H239.922V382.438H343.672V395.625ZM285.312 369.25V217.594C285.312 213.961 288.224 211 291.797 211C295.37 211 298.281 213.961 298.281 217.594V369.25H285.312ZM389.062 323.094H311.25V217.594C311.25 206.688 302.522 197.812 291.797 197.812C281.072 197.812 272.344 206.688 272.344 217.594V323.094H194.531V191.219H389.062V323.094Z" fill="black"/>
<defs>
<filter id="filter0_d_11_25" x="133" y="156" width="23.7346" height="25" filterUnits="userSpaceOnUse" color-interpolation-filters="sRGB">
<feFlood flood-opacity="0" result="BackgroundImageFix"/>
<feColorMatrix in="SourceAlpha" type="matrix" values="0 0 0 0 0 0 0 0 0 0 0 0 0 0 0 0 0 0 127 0" result="hardAlpha"/>
<feOffset dy="4"/>
<feGaussianBlur stdDeviation="2"/>
<feComposite in2="hardAlpha" operator="out"/>
<feColorMatrix type="matrix" values="0 0 0 0 0 0 0 0 0 0 0 0 0 0 0 0 0 0 0.25 0"/>
<feBlend mode="normal" in2="BackgroundImageFix" result="effect1_dropShadow_11_25"/>
<feBlend mode="normal" in="SourceGraphic" in2="effect1_dropShadow_11_25" result="shape"/>
</filter>
</defs>
</svg>
