<svg width="326" height="287" viewBox="0 0 326 287" fill="none" xmlns="http://www.w3.org/2000/svg">
<path d="M140.573 72.3656C147.244 69.5727 154.756 69.5727 161.427 72.3656L265.197 115.811C275.236 120.014 281.77 129.834 281.77 140.717V214.283C281.77 225.166 275.236 234.986 265.197 239.189L161.427 282.634C154.756 285.427 147.244 285.427 140.573 282.634L36.8029 239.189C26.7642 234.986 20.2302 225.166 20.2302 214.283V140.717C20.2302 129.834 26.7642 120.014 36.803 115.811L140.573 72.3656Z" fill="#383838"/>
<g filter="url(#filter0_d_140_105)">
<path d="M105.265 68.0474H171.671V116.51C171.671 123.59 168.581 130.301 163.238 134.833L144.867 145.078C141.949 146.708 138.679 147.559 135.351 147.559H122.05C118.726 147.559 115.453 146.708 112.535 145.078L94.1635 134.833C88.8236 130.301 85.7338 123.586 85.7338 116.51V83.9497L105.265 68.0474Z" fill="#FCE0B9"/>
<path d="M147.846 49.3C147.846 61.2846 136.274 71 122 71H144.154C158.428 71 170 61.2846 170 49.3V40H166.308H147.846V49.3Z" fill="#371D11"/>
<path d="M144.154 62.6667H140.07C135.41 65.9627 129.038 68 122 68H144.154C158.428 68 170 59.6427 170 49.3333V44C170 54.3093 158.428 62.6667 144.154 62.6667Z" fill="#4D2817"/>
<path d="M108.524 63.8824C108.524 50.9199 120.761 40.4118 135.857 40.4118H151.476H171C171 33.0051 160.918 27 143.667 27H112.429C105.052 27 98.1098 29.9808 93.6857 35.0471C90.6439 38.5308 89 42.7655 89 47.1176V84L108.524 73.9412V63.8824Z" fill="#201008"/>
<path d="M85.6875 116.048V79.5118H77.875C69.2461 79.5118 62.25 86.6321 62.25 95.4142V111.317C62.25 120.099 69.2461 127.219 77.875 127.219H88.457C86.6797 123.812 85.6875 119.995 85.6875 116.048Z" fill="#606060"/>
<path d="M191.156 111.317V95.4142C191.156 86.6321 184.16 79.5118 175.531 79.5118H171.625V111.317H191.156Z" fill="#606060"/>
<path d="M151 50.2V40H135.364C120.251 40 108 50.6556 108 63.8V74H123.636C138.749 74 151 63.3444 151 50.2Z" fill="#201008"/>
<path d="M105.2 27H97.4C90.0329 27 83.0987 29.9808 78.68 35.0471C75.6419 38.5308 74 42.7655 74 47.1176V84H77.9H89.6V47.1176C89.6 42.7655 91.2419 38.5308 94.28 35.0471C98.6987 29.9808 105.633 27 113 27H105.2Z" fill="#371D11"/>
<path d="M73.9688 115.292V99.3898C73.9688 91.9872 78.9609 85.8211 85.6875 84.048V79.5118H77.875C69.2461 79.5118 62.25 86.6321 62.25 95.4142V111.317C62.25 120.099 69.2461 127.219 77.875 127.219H79.3594C76.082 124.305 73.9688 120.071 73.9688 115.292Z" fill="#878787"/>
<path d="M175.531 79.5118H171.625V87.463C180.254 87.463 187.25 94.5833 187.25 103.365V111.317H191.156V95.4142C191.156 86.6321 184.16 79.5118 175.531 79.5118Z" fill="#878787"/>
<path d="M191.156 172.358C202.027 176.838 210.688 181.947 210.688 186.853V242.511H46.625V186.853C46.625 173.678 109.125 159.024 109.125 159.024H148.188L191.156 172.358Z" fill="#496A81"/>
<path d="M191.156 184.285L148.188 170.95H109.125C109.125 170.95 53.9688 183.887 47.293 196.374L46.625 186.853C46.625 173.678 109.125 159.024 109.125 159.024H148.188L191.156 172.358C202.027 176.838 210.688 181.947 210.688 186.853L210.012 196.47C207.863 192.295 200.332 188.065 191.156 184.285Z" fill="#304350"/>
<path d="M112.492 144.616C115.41 146.246 118.68 147.097 122.008 147.097H135.309C138.633 147.097 141.906 146.246 144.824 144.616L148.188 142.74V166.975C137.402 177.951 119.91 177.951 109.125 166.975V142.74L112.492 144.616Z" fill="#FCE0B9"/>
<path d="M109.125 142.74L112.492 144.616C115.41 146.246 118.68 147.097 122.008 147.097H135.309C138.633 147.097 141.906 146.246 144.824 144.616L148.188 142.74V166.975C147.57 167.603 146.926 168.183 146.27 168.74L109.125 144.258V142.74Z" fill="#F5CBA1"/>
<path d="M123.818 62.6667H110V68H123.818C137.173 68 148 59.6427 148 49.3333V44C148 54.3093 137.173 62.6667 123.818 62.6667Z" fill="#3D2012"/>
<path d="M70.0625 226.609L109.125 218.658H132.562C139.035 218.658 144.281 223.997 144.281 230.584V242.511H70.0625V226.609Z" fill="#FCE0B9"/>
<path d="M85.6216 44.2472C85.6216 37.6562 93.2914 34.7969 107 32.3884C119.779 30.1434 136.268 30.4702 154.5 32.3884C170.505 33.4382 169.892 33.7212 170 41.5L171.5 79.5L178 80C178 78.1261 178.278 36.0078 177.777 34.3938C176.333 29.7403 171.55 24.4825 156.183 24.4825H108.108C99.2586 24.4825 90.9293 27.411 85.6216 32.3884C81.9722 35.811 80 39.9715 80 44.2472V79.5944L85.6216 79.5001V44.2472Z" fill="black"/>
<path d="M144 68H165.692C169.579 68 173.248 67.3 176.538 66.0876C185.082 62.9404 191 56.212 191 48.4V40H169.308V48.4C169.308 59.2248 157.977 68 144 68Z" fill="#201008"/>
<path d="M176.538 60.8453C173.248 62 169.579 62.6667 165.692 62.6667H161.694C157.131 65.9627 150.891 68 144 68H165.692C169.579 68 173.248 67.3333 176.538 66.1787C185.082 63.1813 191 56.7733 191 49.3333V44C191 51.4427 185.082 57.848 176.538 60.8453Z" fill="#3D2012"/>
<path fill-rule="evenodd" clip-rule="evenodd" d="M125.665 129.247C125.665 132.424 129.916 135 135.161 135C140.405 135 144.657 132.424 144.657 129.247" fill="black" fill-opacity="0.7"/>
<path fill-rule="evenodd" clip-rule="evenodd" d="M130.413 118.394C130.413 120.267 132.69 121.786 135.5 121.786C138.31 121.786 140.587 120.267 140.587 118.394" fill="black" fill-opacity="0.16"/>
<path d="M117.525 108.22C119.773 108.22 121.595 106.398 121.595 104.15C121.595 101.903 119.773 100.081 117.525 100.081C115.278 100.081 113.455 101.903 113.455 104.15C113.455 106.398 115.278 108.22 117.525 108.22Z" fill="black" fill-opacity="0.6"/>
<path d="M152.796 108.22C155.044 108.22 156.866 106.398 156.866 104.15C156.866 101.903 155.044 100.081 152.796 100.081C150.549 100.081 148.727 101.903 148.727 104.15C148.727 106.398 150.549 108.22 152.796 108.22Z" fill="black" fill-opacity="0.6"/>
<path fill-rule="evenodd" clip-rule="evenodd" d="M115.183 87.9719C111.244 88.1539 104.877 91.016 105.041 94.988C105.046 95.1181 105.237 95.1751 105.33 95.0751C107.199 93.0679 120.467 91.0395 125.14 92.1144C125.567 92.2129 125.892 91.791 125.622 91.4862C123.3 88.8759 118.712 87.8055 115.183 87.9719Z" fill="black" fill-opacity="0.6"/>
<path fill-rule="evenodd" clip-rule="evenodd" d="M155.817 87.9719C159.756 88.1539 166.123 91.016 165.959 94.988C165.954 95.1181 165.763 95.1751 165.67 95.0751C163.801 93.0679 150.533 91.0395 145.86 92.1144C145.433 92.2129 145.108 91.791 145.378 91.4862C147.7 88.8759 152.288 87.8055 155.817 87.9719Z" fill="black" fill-opacity="0.6"/>
</g>
<path d="M197 233V248H270V233H241.611H225.389H197Z" fill="#D5D5D5"/>
<g filter="url(#filter1_d_140_105)">
<path d="M146 108V144.834V164.727V204H223V129.818C223 124.996 227.922 121.091 234 121.091C240.078 121.091 245 124.996 245 129.818V204H322V108H146Z" fill="#D5D5D5"/>
<path d="M234.247 121.268C228.912 121.268 224.591 125.146 224.591 129.933V203.58V233.905H243.902V203.58V129.933C243.902 125.146 239.581 121.268 234.247 121.268Z" fill="#D5D5D5"/>
<path d="M214.074 118.682V203.451H223.914V129.693C223.914 124.899 228.318 121.016 233.755 121.016C239.191 121.016 243.595 124.899 243.595 129.693V203.451H253.435V118.682C253.435 112.781 244.623 108 233.755 108C222.886 108 214.074 112.781 214.074 118.682Z" fill="#9C9C9C"/>
<path d="M197 243H270V250H197V243Z" fill="#9C9C9C"/>
</g>
<defs>
<filter id="filter0_d_140_105" x="27" y="0" width="258" height="262.438" filterUnits="userSpaceOnUse" color-interpolation-filters="sRGB">
<feFlood flood-opacity="0" result="BackgroundImageFix"/>
<feColorMatrix in="SourceAlpha" type="matrix" values="0 0 0 0 0 0 0 0 0 0 0 0 0 0 0 0 0 0 127 0" result="hardAlpha"/>
<feOffset dy="4"/>
<feGaussianBlur stdDeviation="2"/>
<feComposite in2="hardAlpha" operator="out"/>
<feColorMatrix type="matrix" values="0 0 0 0 0 0 0 0 0 0 0 0 0 0 0 0 0 0 0.25 0"/>
<feBlend mode="normal" in2="BackgroundImageFix" result="effect1_dropShadow_140_105"/>
<feBlend mode="normal" in="SourceGraphic" in2="effect1_dropShadow_140_105" result="shape"/>
</filter>
<filter id="filter1_d_140_105" x="142" y="108" width="184" height="150" filterUnits="userSpaceOnUse" color-interpolation-filters="sRGB">
<feFlood flood-opacity="0" result="BackgroundImageFix"/>
<feColorMatrix in="SourceAlpha" type="matrix" values="0 0 0 0 0 0 0 0 0 0 0 0 0 0 0 0 0 0 127 0" result="hardAlpha"/>
<feOffset dy="4"/>
<feGaussianBlur stdDeviation="2"/>
<feComposite in2="hardAlpha" operator="out"/>
<feColorMatrix type="matrix" values="0 0 0 0 0 0 0 0 0 0 0 0 0 0 0 0 0 0 0.25 0"/>
<feBlend mode="normal" in2="BackgroundImageFix" result="effect1_dropShadow_140_105"/>
<feBlend mode="normal" in="SourceGraphic" in2="effect1_dropShadow_140_105" result="shape"/>
</filter>
</defs>
</svg>
