<svg width="250" height="255" viewBox="0 0 250 255" fill="none" xmlns="http://www.w3.org/2000/svg">
<path d="M74.265 68.0474H140.671V116.51C140.671 123.59 137.581 130.301 132.238 134.833L113.867 145.078C110.949 146.708 107.679 147.559 104.351 147.559H91.0502C87.726 147.559 84.4525 146.708 81.5345 145.078L63.1635 134.833C57.8236 130.301 54.7338 123.586 54.7338 116.51V83.9497L74.265 68.0474Z" fill="#FCE0B9"/>
<path d="M116.846 49.3C116.846 61.2846 105.274 71 91 71H113.154C127.428 71 139 61.2846 139 49.3V40H135.308H116.846V49.3Z" fill="#371D11"/>
<path d="M113.154 62.6667H109.07C104.41 65.9627 98.0375 68 91 68H113.154C127.428 68 139 59.6427 139 49.3333V44C139 54.3093 127.428 62.6667 113.154 62.6667Z" fill="#4D2817"/>
<path d="M77.5238 63.8824C77.5238 50.9199 89.7613 40.4118 104.857 40.4118H120.476H140C140 33.0051 129.918 27 112.667 27H81.4286C74.0525 27 67.1098 29.9808 62.6857 35.0471C59.6439 38.5308 58 42.7655 58 47.1176V84L77.5238 73.9412V63.8824Z" fill="#201008"/>
<path d="M54.6875 116.048V79.5118H46.875C38.2461 79.5118 31.25 86.6321 31.25 95.4142V111.317C31.25 120.099 38.2461 127.219 46.875 127.219H57.457C55.6797 123.812 54.6875 119.995 54.6875 116.048Z" fill="#606060"/>
<path d="M160.156 111.317V95.4142C160.156 86.6321 153.16 79.5118 144.531 79.5118H140.625V111.317H160.156Z" fill="#606060"/>
<path d="M120 50.2V40H104.364C89.2511 40 77 50.6556 77 63.8V74H92.6364C107.749 74 120 63.3444 120 50.2Z" fill="#201008"/>
<path d="M74.2 27H66.4C59.0329 27 52.0987 29.9808 47.68 35.0471C44.6419 38.5308 43 42.7655 43 47.1176V84H46.9H58.6V47.1176C58.6 42.7655 60.2419 38.5308 63.28 35.0471C67.6987 29.9808 74.6329 27 82 27H74.2Z" fill="#371D11"/>
<path d="M42.9688 115.292V99.3898C42.9688 91.9872 47.9609 85.8211 54.6875 84.048V79.5118H46.875C38.2461 79.5118 31.25 86.6321 31.25 95.4142V111.317C31.25 120.099 38.2461 127.219 46.875 127.219H48.3594C45.082 124.305 42.9688 120.071 42.9688 115.292Z" fill="#878787"/>
<path d="M144.531 79.5118H140.625V87.463C149.254 87.463 156.25 94.5833 156.25 103.365V111.317H160.156V95.4142C160.156 86.6321 153.16 79.5118 144.531 79.5118Z" fill="#878787"/>
<path d="M160.156 172.358C171.027 176.838 179.688 181.947 179.688 186.853V242.511H15.625V186.853C15.625 173.678 78.125 159.024 78.125 159.024H117.188L160.156 172.358Z" fill="#496A81"/>
<path d="M160.156 184.285L117.188 170.95H78.125C78.125 170.95 22.9688 183.887 16.293 196.374L15.625 186.853C15.625 173.678 78.125 159.024 78.125 159.024H117.188L160.156 172.358C171.027 176.838 179.688 181.947 179.688 186.853L179.012 196.47C176.863 192.295 169.332 188.065 160.156 184.285Z" fill="#304350"/>
<path d="M118.522 103.776C114.966 103.776 112.061 100.83 112.061 97.194C112.061 93.5584 114.966 90.6117 118.522 90.6117C122.079 90.6117 124.983 93.5584 124.983 97.194C124.983 100.83 122.079 103.776 118.522 103.776Z" fill="white" stroke="black" stroke-width="0.75"/>
<path d="M110.447 128.152C110.447 130.682 109.431 132.394 107.934 133.455C106.416 134.53 104.353 134.97 102.237 134.83C100.123 134.689 98.0095 133.973 96.4144 132.803C94.8265 131.639 93.7795 130.049 93.6953 128.141V127.719H110.447V128.152Z" fill="#0C0704" stroke="black"/>
<path d="M120.765 102.662C119.872 102.662 119.047 101.823 119.047 100.666C119.047 99.5084 119.872 98.6694 120.765 98.6694C121.659 98.6694 122.484 99.5084 122.484 100.666C122.484 101.823 121.659 102.662 120.765 102.662Z" fill="black"/>
<path d="M120.765 102.662C119.872 102.662 119.047 101.823 119.047 100.666C119.047 99.5084 119.872 98.6694 120.765 98.6694C121.659 98.6694 122.484 99.5084 122.484 100.666C122.484 101.823 121.659 102.662 120.765 102.662Z" stroke="black"/>
<path d="M120.765 102.662C119.872 102.662 119.047 101.823 119.047 100.666C119.047 99.5084 119.872 98.6694 120.765 98.6694C121.659 98.6694 122.484 99.5084 122.484 100.666C122.484 101.823 121.659 102.662 120.765 102.662Z" stroke="black" stroke-opacity="0.2"/>
<path d="M81.4922 144.616C84.4102 146.246 87.6797 147.097 91.0078 147.097H104.309C107.633 147.097 110.906 146.246 113.824 144.616L117.188 142.74V166.975C106.402 177.951 88.9102 177.951 78.125 166.975V142.74L81.4922 144.616Z" fill="#FCE0B9"/>
<path d="M78.125 142.74L81.4922 144.616C84.4102 146.246 87.6797 147.097 91.0078 147.097H104.309C107.633 147.097 110.906 146.246 113.824 144.616L117.188 142.74V166.975C116.57 167.603 115.926 168.183 115.27 168.74L78.125 144.258V142.74Z" fill="#F5CBA1"/>
<path d="M113.281 111.317V144.875V162.999V198.78H167.969V131.194C167.969 126.801 171.465 123.243 175.781 123.243C180.098 123.243 183.594 126.801 183.594 131.194V198.78H238.281V111.317H113.281Z" fill="#383838"/>
<path d="M175.781 123.243C171.465 123.243 167.969 126.801 167.969 131.194V198.78V226.609H183.594V198.78V131.194C183.594 126.801 180.098 123.243 175.781 123.243Z" fill="#383838"/>
<path d="M140.625 226.609V242.511H210.938V226.609H183.594H167.969H140.625Z" fill="#383838"/>
<path d="M92.8182 62.6667H79V68H92.8182C106.173 68 117 59.6427 117 49.3333V44C117 54.3093 106.173 62.6667 92.8182 62.6667Z" fill="#3D2012"/>
<path d="M39.0625 226.609L78.125 218.658H101.562C108.035 218.658 113.281 223.997 113.281 230.584V242.511H39.0625V226.609Z" fill="#FCE0B9"/>
<path d="M160.156 121.104V198.78H167.969V131.194C167.969 126.801 171.465 123.243 175.781 123.243C180.098 123.243 183.594 126.801 183.594 131.194V198.78H191.406V121.104C191.406 115.698 184.41 111.317 175.781 111.317C167.152 111.317 160.156 115.698 160.156 121.104Z" fill="#262626"/>
<path d="M140.625 234.56H210.938V242.511H140.625V234.56Z" fill="#262626"/>
<path d="M85.0349 103.98C81.4787 103.98 78.574 101.033 78.574 97.3973C78.574 93.7618 81.4787 90.8151 85.0349 90.8151C88.5911 90.8151 91.4958 93.7618 91.4958 97.3973C91.4958 101.033 88.5911 103.98 85.0349 103.98Z" fill="white" stroke="black" stroke-width="0.75"/>
<path d="M87.2781 102.865C86.3844 102.865 85.5592 102.026 85.5592 100.869C85.5592 99.7117 86.3844 98.8728 87.2781 98.8728C88.1718 98.8728 88.9971 99.7117 88.9971 100.869C88.9971 102.026 88.1718 102.865 87.2781 102.865Z" fill="black"/>
<path d="M87.2781 102.865C86.3844 102.865 85.5592 102.026 85.5592 100.869C85.5592 99.7117 86.3844 98.8728 87.2781 98.8728C88.1718 98.8728 88.9971 99.7117 88.9971 100.869C88.9971 102.026 88.1718 102.865 87.2781 102.865Z" stroke="black"/>
<path d="M87.2781 102.865C86.3844 102.865 85.5592 102.026 85.5592 100.869C85.5592 99.7117 86.3844 98.8728 87.2781 98.8728C88.1718 98.8728 88.9971 99.7117 88.9971 100.869C88.9971 102.026 88.1718 102.865 87.2781 102.865Z" stroke="black" stroke-opacity="0.2"/>
<path d="M84.5429 84.8296C87.1089 84.4887 89.7932 84.8405 93.2986 85.8093L76.3594 88.1124C79.4776 86.212 81.9748 85.1707 84.5429 84.8296Z" fill="#201008" stroke="black"/>
<path d="M107.249 115.166C103.781 117.454 101.841 117.405 98.3728 115.166V114.645H107.249V115.166Z" fill="#BCAB93"/>
<path d="M109.467 128.835C103.977 130.644 100.905 130.605 95.4142 128.835V127.959H109.467V128.835Z" fill="#EAE9E8"/>
<path d="M118.987 84.5815C116.421 84.2407 113.737 84.5924 110.232 85.5613L127.171 87.8644C124.053 85.9639 121.555 84.9227 118.987 84.5815Z" fill="#201008" stroke="black"/>
<path d="M54.6216 44.2472C54.6216 37.6562 62.2914 34.7969 76 32.3884C88.7788 30.1434 105.268 30.4702 123.5 32.3884C139.505 33.4382 138.892 33.7212 139 41.5L140.5 79.5L147 80C147 78.1261 147.278 36.0078 146.777 34.3938C145.333 29.7403 140.55 24.4825 125.183 24.4825H77.1079C68.2586 24.4825 59.9293 27.411 54.6216 32.3884C50.9722 35.811 49 39.9715 49 44.2472V79.5944L54.6216 79.5001V44.2472Z" fill="black"/>
<path d="M113 68H134.692C138.579 68 142.248 67.3 145.538 66.0876C154.082 62.9404 160 56.212 160 48.4V40H138.308V48.4C138.308 59.2248 126.977 68 113 68Z" fill="#201008"/>
<path d="M145.538 60.8453C142.248 62 138.579 62.6667 134.692 62.6667H130.694C126.131 65.9627 119.891 68 113 68H134.692C138.579 68 142.248 67.3333 145.538 66.1787C154.082 63.1813 160 56.7733 160 49.3333V44C160 51.4427 154.082 57.848 145.538 60.8453Z" fill="#3D2012"/>
</svg>
