<svg width="100" height="100" viewBox="0 0 100 100" fill="none" xmlns="http://www.w3.org/2000/svg">
<path d="M12.5044 57.6438C8.14401 57.6438 4.04303 55.9452 0.960598 52.8614C-0.314991 51.5858 -0.314991 49.5192 0.960598 48.2438L14.8134 34.3889C21.1806 28.0227 31.5403 28.025 37.9032 34.3889C39.1788 35.6633 39.1788 37.7319 37.9032 39.0065L24.0483 52.8614C20.9657 55.9452 16.8647 57.6438 12.5044 57.6438Z" fill="#2B3A67"/>
<path d="M49.4493 99.9982C48.6138 99.9982 47.7782 99.6793 47.1407 99.0426C44.0559 95.959 42.3573 91.859 42.3573 87.4965C42.3573 83.1351 44.0559 79.0351 47.1407 75.9515L60.9956 62.0976C61.6079 61.4853 62.4392 61.1407 63.3042 61.1407C64.1696 61.1407 65.0007 61.4851 65.6128 62.0976C71.9779 68.4638 71.9779 78.8214 65.6128 85.1875L51.7579 99.0414C51.1202 99.6793 50.2847 99.9982 49.4493 99.9982Z" fill="#404A68"/>
<path d="M57.1466 75.181L79.9357 52.3927C83.2135 49.1146 85.9285 45.4204 88.0762 41.4573C89.1895 39.4026 90.1547 37.279 90.9484 35.0934L64.908 9.05316C62.7222 9.84691 60.5986 10.8121 58.5441 11.9254C54.5808 14.0733 50.8866 16.7883 47.6083 20.0663L24.8212 42.8556L57.1466 75.181Z" fill="#E2E7EC"/>
<path d="M90.9482 35.0936L77.9282 22.0737L40.9836 59.0181L57.1464 75.1808L79.9355 52.3927C83.2132 49.1145 85.9283 45.4204 88.0759 41.4573C89.189 39.4028 90.1546 37.279 90.9482 35.0936Z" fill="#CCD5E0"/>
<path d="M34.2037 85.63C32.2447 89.9404 28.3697 93.2713 23.7978 94.5121L4.11809 99.8892C3.83508 99.9545 3.55207 99.998 3.26906 99.998C2.42004 99.998 1.57101 99.6715 0.961245 99.0402C0.13429 98.2129 -0.192468 96.9939 0.112415 95.8836L5.48957 76.2036C6.09915 73.9179 7.25305 71.8062 8.77689 70.021C10.3226 68.2359 12.2382 66.7773 14.3935 65.7978C18.3773 64.0126 22.8619 64.0562 26.6716 65.9284C28.2609 66.7122 29.7195 67.7571 30.982 69.0196C32.2449 70.2823 33.2898 71.7409 34.0732 73.33C35.9455 77.14 35.989 81.6246 34.2037 85.63Z" fill="#AAD0EA"/>
<path d="M34.2036 85.63C32.2446 89.9404 28.3696 93.2713 23.7978 94.5121L4.11802 99.8892C3.83502 99.9545 3.55201 99.998 3.269 99.998C2.41997 99.998 1.57095 99.6715 0.961182 99.0402L30.9817 69.0197C32.2446 70.2824 33.2896 71.7409 34.073 73.33C35.9454 77.14 35.989 81.6246 34.2036 85.63Z" fill="#89B3D0"/>
<path d="M65.6132 34.3885C61.7956 30.5709 55.5766 30.5707 51.7588 34.3885C49.9118 36.2356 48.8958 38.6985 48.8958 41.3157C48.8956 43.9325 49.9118 46.3954 51.7588 48.2427C53.6676 50.1515 56.1768 51.1212 58.6858 51.1058C61.195 51.1212 63.7042 50.1515 65.613 48.2427C69.4309 44.4251 69.4308 38.2059 65.6132 34.3885Z" fill="#84BCFC"/>
<path d="M65.6132 48.2429C63.7044 50.1517 61.1952 51.1216 58.686 51.106C56.177 51.1214 53.6678 50.1517 51.759 48.2429L65.6134 34.3885C69.4307 38.2059 69.4309 44.4251 65.6132 48.2429Z" fill="#78A8E2"/>
<path d="M24.8204 42.855L16.3333 61.0646C15.9421 62.2382 16.246 63.5316 17.1219 64.4064L35.5944 82.8789C36.2173 83.5017 37.0507 83.8355 37.9034 83.8355C38.2499 83.8355 38.5987 83.7803 38.9366 83.6674L57.1425 75.1765L24.8204 42.855Z" fill="#2B3A67"/>
<path d="M90.9483 35.0936C93.8542 27.0897 94.5872 18.3311 92.8614 9.70257C92.6042 8.40882 91.5921 7.39886 90.2995 7.14066C81.6706 5.41409 72.9121 6.1471 64.9078 9.05335C62.7221 9.84711 60.5984 10.8123 58.5439 11.9256L88.0758 41.4575C89.1891 39.4028 90.1548 37.279 90.9483 35.0936Z" fill="#2B3A67"/>
<path d="M88.0757 41.4573C89.189 39.4026 90.1542 37.279 90.948 35.0934C93.8539 27.0895 94.5869 18.3309 92.8611 9.70236C92.7326 9.05548 92.415 8.47951 91.9685 8.03302L73.3101 26.6915L88.0757 41.4573Z" fill="#404A68"/>
<path d="M26.3586 73.6431L35.5944 82.8789C36.2173 83.5017 37.0507 83.8355 37.9034 83.8355C38.2499 83.8355 38.5987 83.7802 38.9366 83.6673L57.1427 75.1767L40.9839 59.0181L26.3586 73.6431Z" fill="#404A68"/>
</svg>
