<svg width="300" height="300" viewBox="0 0 300 300" fill="none" xmlns="http://www.w3.org/2000/svg">
<path d="M174.985 19.3267L267 257.2H229.391L198.719 175.513H111.085L80.0483 257.2H49.3765L141.757 19.3267H174.985ZM155.267 59.1902L119.483 153.367H190.889L155.267 59.1902Z" fill="#7F7F7F"/>
<path d="M86.6208 19.3267L144.313 174.533C146.26 179.978 148.086 185.315 149.79 190.543C151.494 195.553 153.32 201.108 155.267 207.208C157.215 201.544 158.919 196.425 160.379 191.85C161.84 187.058 163.544 182.157 165.491 177.147L226.104 19H255.316L163.3 258.18H142.122L50.4719 19.3267H86.6208Z" fill="#496A81"/>
<path d="M157.417 34.9381C166.911 34.9381 177.013 35.9184 187.724 37.8789C198.678 39.6215 209.146 42.5623 219.126 46.7011C229.35 50.6221 233.569 51.566 240.385 57.8832L230.243 84.0231C222.696 78.5773 210.728 72.4053 204.155 68.92C197.583 65.4347 190.645 62.8207 183.342 61.078C176.283 59.3354 167.641 58.4641 157.417 58.4641C141.351 58.4641 127.719 61.187 116.522 66.6328C105.567 72.0786 96.5607 79.4849 89.5013 88.8517C82.6854 98.2185 77.6951 108.783 74.5306 120.546C71.366 132.309 69.7837 144.508 69.7837 157.142C69.7837 169.123 71.2443 180.995 74.1654 192.758C77.0865 204.303 81.8334 214.868 88.4059 224.453C94.9784 234.037 103.62 241.661 114.331 247.325C125.042 252.989 138.187 255.821 153.766 255.821C166.668 255.821 177.744 253.315 186.994 248.305C196.487 243.077 203.79 236.107 208.902 227.393C214.258 218.462 216.935 208.442 216.935 197.332V175.767L157.62 175.513L164.517 153.367L251.258 153.548V221.839C251.258 230.77 251.624 239.81 252.354 248.959C253.328 258.108 254.058 267.148 254.545 276.079H236.288L224.603 251.246C213.892 261.484 202.33 268.891 189.915 273.465C177.744 277.822 163.746 280 147.924 280C128.693 280 111.897 276.841 97.5344 270.524C83.4156 263.989 71.6094 255.167 62.1158 244.058C52.6221 232.73 45.5628 219.878 40.9377 205.501C36.3126 191.124 34 175.985 34 160.083C34 142.656 36.556 126.428 41.6679 111.397C46.7799 96.1491 54.4478 82.8613 64.6718 71.534C74.8957 59.9889 87.6756 51.0577 103.011 44.7406C118.591 38.2056 136.726 34.9381 157.417 34.9381Z" fill="#383838"/>
</svg>
