<svg width="900" height="900" viewBox="0 0 900 900" fill="none" xmlns="http://www.w3.org/2000/svg">
<g clip-path="url(#clip0_127_154)">
<path d="M864.198 493.039C864.198 519.217 858.093 543.999 847.176 565.987C847.125 566.09 847.073 566.245 846.969 566.349C842.934 574.471 838.174 582.284 832.897 589.63C832.846 589.63 832.846 589.682 832.793 589.733C832.587 589.992 832.38 590.302 832.173 590.613C832.121 590.665 832.121 590.665 832.069 590.716C829.999 593.562 827.774 596.356 825.499 599.045C825.447 599.097 825.395 599.201 825.343 599.252C825.136 599.511 824.929 599.718 824.67 600.028C824.619 600.08 824.567 600.132 824.515 600.184C818.359 607.375 811.581 614.049 804.234 620.05C802.578 621.395 800.872 622.74 799.164 624.034C798.181 624.81 797.25 625.534 796.267 626.207C794.87 627.293 793.422 628.328 791.921 629.311C790.059 630.604 788.145 631.846 786.231 633.035C784.368 634.174 782.505 635.26 780.643 636.346H780.592C756.845 649.798 729.425 657.506 700.246 657.61H699.004C668.842 657.507 640.594 649.281 616.33 635.001H616.278C614.829 634.122 613.381 633.242 611.932 632.311C601.481 625.741 591.858 618.031 583.166 609.34C580.269 606.443 577.476 603.39 574.837 600.286C574.733 600.235 574.682 600.131 574.63 600.079C574.372 599.821 574.165 599.562 573.957 599.303C573.906 599.252 573.854 599.199 573.803 599.148C571.475 596.406 569.25 593.612 567.129 590.715C566.869 590.353 566.663 590.043 566.404 589.68C564.283 586.783 562.265 583.834 560.402 580.782C557.505 576.281 554.866 571.624 552.435 566.813C552.384 566.709 552.331 566.606 552.28 566.502C549.072 560.035 546.279 553.362 543.898 546.481C538.156 529.72 535 511.715 535 493.039C535 486.779 535.362 480.622 536.034 474.569C537.897 457.858 542.243 441.923 548.761 427.127V427.023L549.227 425.989C549.279 425.937 549.279 425.937 549.279 425.885C557.091 408.347 567.956 392.515 581.045 378.857C581.201 378.701 581.356 378.495 581.511 378.339C598.428 360.956 619.123 347.297 642.301 338.657C642.405 338.606 642.559 338.554 642.663 338.502C660.254 332.087 679.241 328.517 699.004 328.413H700.246C718.767 328.517 736.564 331.621 753.12 337.312C754.258 337.726 755.396 338.088 756.534 338.554C756.638 338.554 756.793 338.605 756.897 338.657C774.124 345.072 789.956 354.23 803.873 365.715C809.564 370.32 814.892 375.338 819.911 380.719C819.963 380.77 820.014 380.874 820.067 380.926C821.256 382.167 822.395 383.461 823.533 384.754C824.619 385.996 825.758 387.341 826.844 388.686C826.844 388.686 826.895 388.686 826.895 388.738C828.965 391.221 830.983 393.808 832.897 396.447C833.88 397.792 834.863 399.188 835.846 400.637C836.725 401.879 837.553 403.224 838.381 404.517C838.639 404.828 838.795 405.138 839.002 405.449C839.778 406.69 840.502 407.932 841.278 409.174C842.209 410.726 843.089 412.278 843.968 413.882C846.089 417.814 848.107 421.849 849.97 425.988C850.022 426.04 850.074 426.091 850.074 426.143C850.229 426.454 850.385 426.816 850.488 427.126C851.212 428.73 851.885 430.386 852.557 432.042C852.609 432.093 852.609 432.145 852.661 432.248C853.282 433.852 853.851 435.456 854.472 437.111C854.627 437.474 854.73 437.887 854.885 438.302C858.817 449.425 861.559 461.169 863.008 473.275C863.008 473.327 863.008 473.327 863.008 473.379C863.784 479.794 864.198 486.365 864.198 493.039Z" fill="#F7FBFC"/>
<path d="M700.229 328.718V537.044C700.025 537.048 699.814 537.048 699.611 537.048C699.407 537.048 699.196 537.048 698.993 537.044V328.718H700.229Z" fill="#829FB5"/>
<path d="M739.249 535.836L738.859 537.041L711.587 521.294L710.35 520.583L700.229 514.74L699.716 514.444L698.993 514.023L698.48 513.726L642.242 481.261L588.365 450.155L548.787 427.303L549.245 426.289C549.263 426.246 549.282 426.209 549.3 426.165L589.73 449.506L642.494 479.968L698.992 512.589L699.721 513.009L700.229 513.305L700.958 513.726L711.593 519.865L712.829 520.583L739.249 535.836Z" fill="#829FB5"/>
<path d="M752.022 496.526L751.447 498.281L712.829 520.583L711.587 521.294L700.958 527.433L700.229 527.854L699.722 528.144L698.992 528.565L665.073 548.152L609.965 579.969L574.607 600.384C574.335 600.062 574.063 599.747 573.791 599.426L609.811 578.633L663.757 547.484L698.485 527.433L698.993 527.143L699.722 526.723L700.23 526.425L710.351 520.583L711.593 519.865L752.022 496.526Z" fill="#829FB5"/>
<path d="M825.499 599.339C825.232 599.661 824.96 599.982 824.688 600.298L787.227 578.67L734.37 548.152L700.229 528.441L699.722 528.144L698.992 527.724L698.485 527.433L687.851 521.294L686.614 520.576L647.718 498.12L647.148 496.364L687.85 519.865L689.087 520.583L698.992 526.296L699.722 526.723L700.229 527.013L700.958 527.433L735.502 547.379L788.755 578.126L825.499 599.339Z" fill="#829FB5"/>
<path d="M850.477 427.402L812.119 449.548L756.931 481.408L700.958 513.726L700.229 514.146L699.716 514.442L698.993 514.863L689.087 520.581L687.851 521.292L660.399 537.145L660.003 535.939L686.614 520.575L687.851 519.864L698.479 513.724L698.992 513.428L699.722 513.008L700.229 512.717L756.826 480.041L811.334 448.571L849.97 426.263C850.144 426.641 850.31 427.025 850.477 427.402Z" fill="#829FB5"/>
<path d="M662.176 550.625L639.043 479.418L699.611 435.412L760.18 479.419L737.046 550.625H662.176Z" fill="#DCF0F5"/>
<path d="M756.897 338.244L756.741 338.399L756.535 338.554L739.513 350.918L700.246 379.425L699.625 379.891L699.004 379.425L642.663 338.502L642.301 338.244C659.995 331.725 679.085 328.103 699.004 328H700.246C718.871 328.103 736.72 331.259 753.379 337.002C754.569 337.416 755.759 337.83 756.897 338.244Z" fill="#325366"/>
<path d="M863.144 473.446L812.235 449.432L811.376 449.024L811.45 448.455L820.05 380.902C832.41 394.133 842.605 409.399 850.086 426.148C850.26 426.525 850.427 426.908 850.594 427.286C852.028 430.556 853.351 433.889 854.569 437.271C854.717 437.66 854.86 438.056 854.996 438.451C858.934 449.611 861.698 461.328 863.144 473.446Z" fill="#325366"/>
<path d="M589.946 449.14L589.167 449.505L587.801 450.154L535.482 474.836C537.343 458.155 541.702 442.221 548.176 427.42L548.225 427.302L548.683 426.288C548.702 426.245 548.72 426.208 548.738 426.165C556.658 408.445 567.627 392.388 580.969 378.65L589.946 449.14Z" fill="#325366"/>
<path d="M616.329 635.313C615.087 634.589 613.845 633.813 612.656 633.037C601.895 626.363 591.91 618.447 583.01 609.497C580.113 606.6 577.32 603.547 574.629 600.391C574.318 600.08 574.06 599.77 573.801 599.408C571.473 596.718 569.248 593.872 567.127 590.975C566.868 590.664 566.661 590.302 566.403 589.992C564.075 586.837 561.902 583.577 559.884 580.266C557.142 575.92 554.607 571.419 552.279 566.763L552.434 566.814L552.641 566.866L609.809 578.403V578.61L609.965 579.955L610.223 582.283L616.277 635.002L616.329 635.313Z" fill="#325366"/>
<path d="M847.175 566.28C843.07 574.571 838.285 582.473 832.893 589.898C832.869 589.936 832.838 589.972 832.813 590.01C832.596 590.306 832.374 590.609 832.157 590.906C832.126 590.943 832.102 590.974 832.077 591.011C829.975 593.861 827.78 596.637 825.498 599.339C825.232 599.661 824.96 599.983 824.688 600.298C812.254 614.821 797.329 627.156 780.573 636.64L787.226 578.67L787.251 578.429L788.753 578.126L844.417 566.843L845.654 566.589L847.175 566.28Z" fill="#325366"/>
<path d="M757.272 480.363L739.249 535.836L738.859 537.041L735.248 548.152H663.973L642.24 481.26L641.95 480.363L642.494 479.968L699.611 438.469L757.272 480.363Z" fill="#325366"/>
<path opacity="0.1" d="M854.333 438.665C854.197 438.269 854.054 437.873 853.906 437.484C852.688 434.102 851.365 430.769 849.931 427.499C849.764 427.122 849.597 426.738 849.424 426.361C841.942 409.612 831.747 394.347 819.388 381.115C818.095 379.731 816.773 378.377 815.434 377.037L582.686 609.786C592.551 619.653 603.659 628.279 615.763 635.396C640.03 649.666 668.28 657.883 698.446 657.994C698.65 658 698.86 658 699.064 658C699.268 658 699.478 658 699.682 657.994C728.883 657.888 756.286 650.179 780.027 636.737C796.783 627.253 811.708 614.918 824.142 600.394C824.414 600.079 824.686 599.758 824.952 599.436C827.234 596.734 829.428 593.958 831.531 591.108C831.555 591.071 831.58 591.04 831.611 591.003C831.828 590.706 832.05 590.403 832.267 590.106C832.291 590.07 832.322 590.032 832.347 589.995C837.739 582.569 842.524 574.668 846.629 566.377C857.53 544.385 863.657 519.616 863.657 493.407C863.657 486.724 863.255 480.133 862.482 473.66C861.035 461.541 858.271 449.825 854.333 438.665Z" fill="#03172C"/>
</g>
<g clip-path="url(#clip1_127_154)">
<path d="M327.004 414.369H407.197C421.638 414.369 435.603 419.539 446.571 428.937L524.064 495.393C529.251 499.842 536.841 500.606 542.606 496.947C623.223 445.924 525.44 244.569 506.058 208.013C504.003 204.133 500.616 183.087 496.499 181.585L431.333 157.89C425.619 155.81 419.261 156.574 414.209 159.945C414.209 159.945 395.838 171.686 391.72 171.686H320.196H264.597C260.48 171.686 239.799 159.945 239.799 159.945C234.74 156.574 228.381 155.81 222.676 157.89L157.51 181.585C153.384 183.087 150.005 204.133 147.951 208.013C128.569 244.569 30.7859 445.924 111.403 496.947C117.176 500.597 124.766 499.833 129.944 495.393L207.437 428.937C218.406 419.539 232.371 414.369 246.812 414.369H327.004Z" fill="#DFE4E7"/>
<path d="M392.298 371.921C411.052 371.921 426.256 356.717 426.256 337.963C426.256 319.208 411.052 304.004 392.298 304.004C373.543 304.004 358.339 319.208 358.339 337.963C358.339 356.717 373.543 371.921 392.298 371.921Z" fill="#546A79"/>
<path d="M197.037 287.025C215.792 287.025 230.996 271.821 230.996 253.067C230.996 234.312 215.792 219.108 197.037 219.108C178.283 219.108 163.079 234.312 163.079 253.067C163.079 271.821 178.283 287.025 197.037 287.025Z" fill="#546A79"/>
<path d="M451.725 236.088C461.102 236.088 468.704 228.486 468.704 219.108C468.704 209.731 461.102 202.129 451.725 202.129C442.347 202.129 434.745 209.731 434.745 219.108C434.745 228.486 442.347 236.088 451.725 236.088Z" fill="#EBBA16"/>
<path d="M417.766 270.046C427.144 270.046 434.745 262.444 434.745 253.067C434.745 243.689 427.144 236.088 417.766 236.088C408.389 236.088 400.787 243.689 400.787 253.067C400.787 262.444 408.389 270.046 417.766 270.046Z" fill="#7383BF"/>
<path d="M485.683 270.046C495.06 270.046 502.662 262.444 502.662 253.067C502.662 243.689 495.06 236.088 485.683 236.088C476.306 236.088 468.704 243.689 468.704 253.067C468.704 262.444 476.306 270.046 485.683 270.046Z" fill="#D75A4A"/>
<path d="M451.725 304.004C461.102 304.004 468.704 296.402 468.704 287.025C468.704 277.648 461.102 270.046 451.725 270.046C442.347 270.046 434.745 277.648 434.745 287.025C434.745 296.402 442.347 304.004 451.725 304.004Z" fill="#61B872"/>
<path d="M349.85 180.43C349.85 178.8 349.688 177.204 349.391 175.667C349.094 174.131 348.449 172.798 347.566 171.686C337.625 171.686 329.908 171.686 326.52 171.686C325.799 171.745 325.12 171.94 324.39 171.94C323.651 171.94 322.972 171.754 322.259 171.686C322.148 171.686 320.204 171.686 320.204 171.686H301.128C300.381 172.653 299.787 173.766 299.498 175.081C298.759 178.46 298.7 182.102 299.498 185.872C301.603 195.805 309.898 203.81 319.907 205.517C335.944 208.25 349.85 195.966 349.85 180.43Z" fill="#AFB6BB"/>
<path d="M311.647 318.037H283.75V290.141C283.75 286.787 281.033 284.079 277.688 284.079H255.862C252.508 284.079 249.8 286.796 249.8 290.141V318.037H221.903C218.55 318.037 215.842 320.754 215.842 324.099V345.926C215.842 349.279 218.558 351.987 221.903 351.987H249.792V379.884C249.792 383.237 252.508 385.946 255.853 385.946H277.68C281.033 385.946 283.741 383.229 283.741 379.884V351.987H311.638C314.992 351.987 317.7 349.271 317.7 345.926V324.099C317.708 320.754 314.992 318.037 311.647 318.037Z" fill="#546A79"/>
</g>
<path d="M207.437 499.75C203.125 499.75 198.75 499.687 194.187 499.437C169.937 498.437 150.937 490.25 137.687 475.25C113.875 448.25 115.312 406.812 115.625 401.062L115.812 400.5C117.25 395.562 121.5 380.438 133.937 373.875C142.062 369.563 149.375 367.5 156.25 367.5C165.187 367.5 173.437 371 181.5 378.25C202.062 396.75 225.125 408.25 241.625 408.25C253.437 408.25 285 406.437 297.875 405.625L317.375 469.937C307.5 477.625 273.5 499.75 207.437 499.75Z" fill="#37474F"/>
<path d="M156.187 374.438C163.312 374.438 170.062 377.375 176.75 383.375C198.875 403.312 223.125 415.188 241.562 415.188C252.062 415.188 277.812 413.75 292.75 412.875L309.187 467.25C296.687 475.75 264.687 492.688 207.437 492.688C203.187 492.688 198.812 492.625 194.5 492.438C172.25 491.5 154.937 484.188 143 470.688C121.75 446.625 122.25 409.375 122.562 402.188C123.812 397.75 127.5 385.063 137.187 380C144.187 376.25 150.437 374.438 156.187 374.438ZM156.187 360.5C147.187 360.5 138.562 363.5 130.562 367.688C114 376.438 109.625 396.875 108.687 399.813C108.687 399.813 99.875 502.438 193.875 506.375C198.562 506.563 203.062 506.688 207.437 506.688C291.437 506.688 325.312 472.313 325.312 472.313L302.937 398.313C302.937 398.313 256.187 401.25 241.625 401.25C227.062 401.25 205.625 390.562 186.125 373C175.937 363.937 165.875 360.5 156.187 360.5Z" fill="#90A4AE"/>
<path d="M91.3751 604.875C81.9376 636.25 82.8751 691.625 82.8751 691.625C82.8751 700.438 88.4376 715.813 101.313 720.688C168.938 746.125 246 739.438 286.25 757.875C333 779.313 484.5 845.25 611.25 831.313C762.125 814.75 810 746.625 818.188 727.625C824 714 827.938 662.375 822.063 660.438C757.938 639.063 518.75 733.938 475 700.875C437.438 672.5 100.813 573.5 91.3751 604.875Z" fill="#E0E0E0"/>
<path d="M127.688 368.188C127.688 368.188 92.125 395.875 82.9375 453.875C73.125 515.187 64.4375 604.875 108.688 640C141.375 665.938 242.313 653.375 289.063 674.813C335.813 696.25 477.563 803.062 604.313 789.187C755.188 772.625 808.375 707 816.5 687.938C822.313 674.313 838.438 650.125 753.25 615.813C690.5 590.563 642.625 553.125 598.813 520C561.25 491.625 425.563 409 425.563 409C425.563 409 402.875 355.125 365.188 346.687C340.438 341.125 285.375 370.312 275.625 396.937C264.813 426.5 278.25 453.75 278.25 453.75C219.875 484.25 199.75 488.812 160.125 463.5C120.5 438.187 127.688 368.188 127.688 368.188Z" fill="#0277BD"/>
<path d="M127.688 368.188C127.688 368.188 92.125 395.875 82.9375 453.875C73.125 515.187 64.4375 604.875 108.688 640C141.375 665.938 242.313 653.375 289.063 674.813C335.813 696.25 477.563 803.062 604.313 789.187C755.188 772.625 808.375 707 816.5 687.938C822.313 674.313 838.438 650.125 753.25 615.813C690.5 590.563 642.625 553.125 598.813 520C561.25 491.625 425.563 409 425.563 409C425.563 409 402.875 355.125 365.188 346.687C340.438 341.125 285.375 370.312 275.625 396.937C264.813 426.5 278.25 453.75 278.25 453.75C219.875 484.25 199.75 488.812 160.125 463.5C120.5 438.187 127.688 368.188 127.688 368.188Z" fill="#2B3A67"/>
<path d="M283.062 453.375C298.062 450.875 310.312 450.563 325.187 452.438C325.812 437.375 318.562 420.25 310.812 407.625C308.937 404.563 306.812 401.563 305.625 398.188C299.375 380.563 332.75 362.438 346.062 358.563C360.687 354.25 376.625 354.938 390.875 360.375C383.375 354 374.812 349 365.312 346.813C342.312 341.625 313.062 357.437 295.25 370.437C267.625 390.5 262.375 420.563 277.437 451.438C277.812 452.25 278.312 453.125 279.062 453.5C279.875 453.938 280.875 453.813 281.812 453.625C282.125 453.5 282.562 453.438 283.062 453.375Z" fill="#BDBDBD"/>
<path d="M625.312 540C618.562 535 609.875 533.062 601.875 535.562C600.125 536.125 598.375 536.75 596.687 537.437C581.562 543.687 569.562 555.5 558.125 567.25C546.687 578.937 535.125 591.125 520.5 598.375C500.687 608.187 483.875 603.375 464.125 602.375C446.062 601.5 434.812 610.875 430.75 629.812C427.937 643 434.312 660.813 445.812 667.875C485.25 692.125 523.875 702.938 566.75 708.75C621.625 716.188 679 703.625 725.75 674C739 665.625 752.25 654.625 755.5 639.25C755.5 639.188 755.562 639.062 755.562 639C758 627.125 751.187 615.125 740.062 610.187C695.687 590.562 658.812 565 625.312 540Z" fill="#84BCFC"/>
<path d="M502.438 615.25C487.188 615.25 472.062 608.437 457.375 600.062C433.812 586.625 339 524.25 310.375 505.375C303.75 513.313 292.562 524.875 279.437 530.25C267.062 535.312 256.812 534.187 247.75 533.25C238.687 532.312 231.5 531.5 221.75 536.375C208.687 542.937 197.063 552.062 183.875 558.375C169.813 565.125 143.875 564.312 130.625 559.312C99.75 547.687 95 531.25 93.4375 524.75C108.625 535.5 128.375 547.188 150.437 546.25C183.125 544.875 195 526.75 212.563 517.937C227.688 510.375 240 511.688 249.938 512.75C257.813 513.563 264.063 514.25 271.688 511.125C283.688 506.25 295.812 491.125 299.5 485.687L305.188 477.25L313.687 482.875C314.937 483.75 440.937 566.937 467.562 582.125C482.187 590.5 500.75 599.937 517 590.5C535.563 579.75 550.688 562.375 567.563 549.187C576.063 542.5 585.188 536.187 595.625 533.25C606.063 530.375 618.188 531.562 626.313 538.687C592.688 540.625 565.063 570.5 544.125 594.062C530.438 609.5 516.438 615.25 502.438 615.25Z" fill="#404A68"/>
<path d="M441.75 535.187C451.5 500.812 475.437 472.875 491.062 449.5" stroke="#9E9E9E" stroke-width="20.9312" stroke-miterlimit="10" stroke-linecap="round"/>
<path d="M393.625 502.438C393.75 467.938 428.125 419.437 433.938 414.188" stroke="#9E9E9E" stroke-width="20.9312" stroke-miterlimit="10" stroke-linecap="round"/>
<path d="M336.875 475.562C369.375 444.062 412.5 415.563 433.937 411.688" stroke="#E0E0E0" stroke-width="20.9312" stroke-miterlimit="10" stroke-linecap="round"/>
<path d="M393.625 502.438C420.188 474.188 454.687 453.5 492.125 443.375" stroke="#E0E0E0" stroke-width="20.9312" stroke-miterlimit="10" stroke-linecap="round"/>
<path d="M495.688 557.875C504.875 531.25 522.375 502.75 538.313 479.688" stroke="#9E9E9E" stroke-width="20.9312" stroke-miterlimit="10" stroke-linecap="round"/>
<path d="M438.75 535.187C466.186 506.738 501.224 486.778 539.687 477.688" stroke="#E0E0E0" stroke-width="20.9312" stroke-miterlimit="10" stroke-linecap="round"/>
<path d="M167.875 372.5C167.187 373.188 166.25 373.563 165.25 373.875C159 375.813 154.812 373.5 148.437 375C140.062 377 131.25 385.188 129.187 393.563C127.125 401.938 128.562 410.75 131 418.938C135.687 434.5 144.25 448.875 155.687 460.438C159.312 464.063 163.312 467.625 165.125 472.438C166.937 477.25 165.5 483.75 160.75 485.563C158.812 486.313 156.625 486.188 154.562 485.75C150.875 485 147.375 483.313 144.062 481.5C133 475.438 122.875 467.563 114.375 458.25C108.625 452 103.562 444.938 100.437 437.063C93.3125 418.813 99.1875 397.688 111.187 382.188C119.937 370.875 128.687 365.813 143.875 362.75C148.687 361.75 157.687 360.5 166.125 362.188C169.937 362.938 171.437 369.063 167.875 372.5Z" fill="#84BCFC"/>
<path d="M276.375 449.5C276.563 450 273.75 448.375 273.563 448.875C273.125 449.938 271.563 449.5 270.625 448.875C266 445.688 263 440.75 260.313 435.875C257.5 430.687 255 425.125 254.688 419.25C253.75 402.375 272.125 399.75 272.125 399.75C269 406.875 269.063 416.125 269 420.875C268.875 430.437 272.875 440.625 276.375 449.5Z" fill="#37474F"/>
<path d="M101.562 720.062C109.25 722.313 116.937 724.125 124.75 725.688C132.5 727.313 140.312 728.75 148.125 729.875C163.812 732.125 179.625 733.437 195.5 734.5C211.375 735.812 227.313 736.937 243.438 738.75C259.438 740.687 276.312 743.125 292.375 750.125C321.687 762.062 351.063 773.813 381.063 783.5C410.938 793.5 441.25 802.25 471.875 808.75C502.437 815.625 533.437 820.125 564.437 821.438C579.937 822.125 595.375 821.937 610.75 820.5C626.313 818.937 641.813 817 657.25 814.375C688 809 718.25 800.188 746.187 786.438C760.25 779.75 773.812 771.813 786.062 762.063C792.187 757.25 798 751.938 803.375 746.188C808.813 740.5 813.875 734.375 817.625 727.438L818.875 728C812 742.687 800.937 754.75 789.062 765.438C777.062 776.125 763.625 785.062 749.625 792.75C721.438 808.062 690.688 818.125 659.438 824.75C628.188 831.25 596.188 835.375 564.125 834.312C532.125 833.437 500.313 828.875 469 822.125C406.5 808.313 346.063 786.313 288 759.813C273.688 753 257.875 750.062 242.187 747.625C226.437 745.25 210.562 743.625 194.687 741.687C163.062 737.812 131.187 732.687 101.125 721.375L101.562 720.062Z" fill="#89B3D0"/>
<path d="M638.5 357.112L757.5 309.512V388.653C750.429 384.125 742.02 381.5 733 381.5C707.871 381.5 687.5 401.871 687.5 427C687.5 452.129 707.871 472.5 733 472.5C758.129 472.5 778.5 452.129 778.5 427V293.248C778.5 277.248 778.5 263.829 777.374 253.138C777.215 251.627 777.027 250.125 776.82 248.724C775.735 241.42 773.818 234.606 770.12 228.916C768.27 226.071 765.974 223.507 763.115 221.303C762.579 220.89 762.022 220.49 761.447 220.102L761.33 220.025C751.43 213.436 740.298 213.907 728.832 216.829C717.743 219.655 703.995 225.409 687.136 232.466L657.82 244.736C649.917 248.043 643.222 250.845 637.968 253.747C632.376 256.835 627.56 260.477 623.948 265.904C620.338 271.331 618.837 277.179 618.148 283.529C617.5 289.496 617.5 296.754 617.5 305.32V416.653C610.427 412.125 602.02 409.5 593 409.5C567.871 409.5 547.5 429.871 547.5 455C547.5 480.129 567.871 500.5 593 500.5C618.129 500.5 638.5 480.129 638.5 455V357.112Z" fill="#2B3A67"/>
<path d="M568.5 210C568.5 204.201 563.799 199.5 558 199.5C552.201 199.5 547.5 204.201 547.5 210V290.653C540.428 286.125 532.02 283.5 523 283.5C497.871 283.5 477.5 303.871 477.5 329C477.5 354.129 497.871 374.5 523 374.5C548.129 374.5 568.5 354.129 568.5 329V252.063C578.279 259.128 589.914 262.5 600 262.5C605.799 262.5 610.5 257.799 610.5 252C610.5 246.201 605.799 241.5 600 241.5C593.639 241.5 585.528 239.034 579.162 233.777C573.098 228.769 568.5 221.17 568.5 210Z" fill="#84BCFC"/>
<defs>
<clipPath id="clip0_127_154">
<rect width="330" height="330" fill="white" transform="translate(535 328)"/>
</clipPath>
<clipPath id="clip1_127_154">
<rect width="494" height="494" fill="white" transform="translate(80 81)"/>
</clipPath>
</defs>
</svg>
