<svg width="100" height="100" viewBox="0 0 100 100" fill="none" xmlns="http://www.w3.org/2000/svg">
<g clip-path="url(#clip0_126_75)">
<path d="M81.6537 43.346L77.5184 38.9335C76.8514 40.0399 75.9662 40.9771 74.9354 41.706L78.634 45.676C79.483 44.6737 80.4895 43.8795 81.6537 43.346Z" fill="white"/>
<path d="M81.6537 60.7097C80.5137 60.1759 79.4952 59.382 78.6584 58.4059L63.0151 75.197H68.1568L81.6537 60.7097Z" fill="white"/>
<path d="M62.5544 38.5429C61.7904 37.1371 61.3417 35.51 61.3417 33.7659C61.3417 28.5333 65.2828 24.303 70.1577 24.303C71.0429 24.303 71.8797 24.4462 72.6799 24.7065L74.1594 22.715C75.6994 20.4632 75.5782 17.4043 73.3711 15.53C71.54 13.89 68.3507 14.0851 66.6653 16.3501L51.8831 36.4603C51.1918 37.4105 51.3374 38.7903 52.2104 39.5452L56.491 43.1897L59.365 42.8384L62.5544 38.5429Z" fill="#84BCFC"/>
<path d="M50.3915 43.5801L48.136 46.639L50.9857 49.06L53.2292 46.0142L50.3915 43.5801Z" fill="white"/>
<path d="M70 40C73.3137 40 76 37.3137 76 34C76 30.6863 73.3137 28 70 28C66.6863 28 64 30.6863 64 34C64 37.3137 66.6863 40 70 40Z" fill="#404A68"/>
<path d="M72.2434 79.6094H48.5241C45.5046 79.6094 42.9459 81.7441 42.0728 84.6598H78.6828C77.8096 81.7181 75.263 79.6094 72.2434 79.6094Z" fill="#84BCFC"/>
<path d="M85 58C88.3137 58 91 55.3137 91 52C91 48.6863 88.3137 46 85 46C81.6863 46 79 48.6863 79 52C79 55.3137 81.6863 58 85 58Z" fill="#404A68"/>
<path d="M86.8922 42.7732L78.9373 34.2345C78.9373 34.0782 78.9615 33.922 78.9615 33.7659C78.9615 31.1106 77.9307 28.7156 76.2937 26.9975L77.3608 25.4354C80.7685 20.5673 79.2768 15.1396 76.0511 12.2108C72.292 8.93066 66.8471 9.21698 63.4516 13.6295L48.6816 33.7398C47.2991 35.601 47.0324 38.0351 47.76 40.1178L44.9589 43.9186C43.4672 45.8842 43.9887 48.7217 45.6259 50.0754L48.4756 52.4835C50.234 53.9803 52.926 53.5378 54.2115 51.7675L57.0127 47.9667C59.062 48.253 61.1477 47.3941 62.5788 45.5195L65.4891 41.7709C66.8352 42.6691 68.4359 43.2157 70.1579 43.2157C70.3034 43.2157 70.449 43.2026 70.5944 43.1898L76.6212 49.6588C76.4514 50.4008 76.3301 51.1947 76.3301 52.0017C76.3301 52.8087 76.4271 53.6028 76.6212 54.3445L64.1067 67.8033L40.375 60.7097C39.3079 60.3193 38.1438 60.931 37.78 62.0765C37.4163 63.2219 37.9862 64.4715 39.0533 64.8619L60.881 71.2657L57.2308 75.1966H48.524C42.5336 75.1966 37.6707 80.4292 37.6707 86.8463C37.6707 88.0568 38.5801 89.046 39.7201 89.046H81.0594H81.0716C82.1993 89.046 83.1209 88.0699 83.1209 86.8463C83.1209 86.7162 83.1087 86.6119 83.0967 86.5078C82.9391 80.8196 78.9495 76.1467 73.8199 75.3397L86.8922 61.3081C90.9183 60.4361 93.9498 56.6222 93.9498 52.0405C93.9498 47.4591 90.9183 43.6454 86.8922 42.7732ZM50.9979 49.0602L48.1359 46.6392L50.3794 43.5935L53.2292 46.0144L50.9979 49.0602ZM61.3417 33.7659C61.3417 35.5102 61.7904 37.1371 62.5544 38.5429L59.3652 42.8122L56.4912 43.1636L52.2106 39.519C51.3254 38.777 51.1798 37.3843 51.8833 36.4342L66.6777 16.337C68.3633 14.0461 71.5647 13.8769 73.3835 15.5169C75.5906 17.4043 75.6876 20.4501 74.1718 22.702L72.6923 24.6935C71.8919 24.4331 71.0431 24.29 70.1701 24.29C65.295 24.329 61.3417 28.5593 61.3417 33.7659ZM70.1455 38.8813C67.5019 38.8813 65.3798 36.5904 65.3798 33.7659C65.3798 30.9415 67.5141 28.6505 70.1455 28.6505C72.7891 28.6505 74.9112 30.9415 74.9112 33.7659C74.9112 36.5904 72.7771 38.8813 70.1455 38.8813ZM74.9598 41.6929C75.9906 40.977 76.8637 40.0268 77.5428 38.9204L81.6778 43.3589C80.5379 43.8925 79.5072 44.6866 78.6825 45.6627L74.9598 41.6929ZM78.6827 84.6599H42.0727C42.9459 81.7313 45.5045 79.6095 48.524 79.6095H72.2556C75.2629 79.6095 77.8095 81.7182 78.6827 84.6599ZM68.1567 75.197H63.0151L78.6583 58.4059C79.4951 59.382 80.5137 60.1761 81.6536 60.7097L68.1567 75.197ZM85.1339 57.1563C82.4903 57.1563 80.3682 54.8654 80.3682 52.0409C80.3682 49.2165 82.5025 46.9255 85.1339 46.9255C87.7775 46.9255 89.8996 49.2165 89.8996 52.0409C89.8997 54.8654 87.7655 57.1563 85.1339 57.1563Z" fill="#2B3A67"/>
</g>
<g clip-path="url(#clip1_126_75)">
<path d="M46.5523 82.9374L31.1996 56.2176V39.0322H20.2334V56.3353L4.88083 82.9374C3.12621 85.9978 5.20982 90 8.49967 90H42.8238C46.2233 90 48.3069 85.9978 46.5523 82.9374Z" fill="#2B3A67"/>
<path d="M31.5286 39.0322C32.6253 39.0322 33.5025 38.0905 33.5025 36.9134C33.5025 35.7363 32.6253 34.7947 31.5286 34.7947H19.9045C18.8078 34.7947 17.9305 35.7363 17.9305 36.9134C17.9305 38.0905 18.8078 39.0322 19.9045 39.0322H20.2334H31.1996H31.5286Z" fill="#2B3A67"/>
<path d="M29.2201 40.5695H22.0631L22.0631 56.5695L16.8312 67.6424C16.6103 68.9338 16.5028 68.3408 16.6131 68.7097C16.6684 69.0786 16.8892 70.1854 17.3308 70.1854H34.61C35.0516 70.1854 34.8411 69.4673 34.8963 68.9139C34.9515 68.545 34.8308 68.9338 34.61 67.6424L29.2201 56.5695V40.5695Z" fill="white"/>
<path d="M34.5991 67.6353H16.8339L7.18368 84.4676C6.745 85.2916 6.96439 85.9978 7.18368 86.2332C7.29337 86.4686 7.73195 87.1748 8.60931 87.1748H42.9335C43.8107 87.1748 44.2494 86.5863 44.3591 86.2332C44.4688 85.9978 44.7978 85.2916 44.3591 84.4676L34.5991 67.6353Z" fill="#404A68"/>
<path d="M25.8615 80.0276C25.8615 79.1591 25.2056 78.4552 24.3966 78.4552C23.5875 78.4552 22.9316 79.1591 22.9316 80.0276C22.9316 80.896 23.5875 81.6 24.3966 81.6C25.2056 81.6 25.8615 80.896 25.8615 80.0276Z" fill="white"/>
<path d="M34.8136 75.5724C34.8136 74.704 34.1578 74 33.3487 74C32.5397 74 31.8838 74.704 31.8838 75.5724C31.8838 76.4408 32.5397 77.1448 33.3487 77.1448C34.1578 77.1448 34.8136 76.4408 34.8136 75.5724Z" fill="white"/>
<path d="M36.9298 84.6575C36.9298 84.2233 36.6018 83.8713 36.1973 83.8713C35.7928 83.8713 35.4648 84.2233 35.4648 84.6575C35.4648 85.0917 35.7928 85.4437 36.1973 85.4437C36.6018 85.4437 36.9298 85.0917 36.9298 84.6575Z" fill="white"/>
<path d="M39.4527 79.4161C39.4527 79.0784 39.1976 78.8046 38.8829 78.8046C38.5683 78.8046 38.3132 79.0784 38.3132 79.4161C38.3132 79.7539 38.5683 80.0276 38.8829 80.0276C39.1976 80.0276 39.4527 79.7539 39.4527 79.4161Z" fill="white"/>
<path d="M18.2927 82.561C18.2927 82.0303 17.8919 81.6001 17.3975 81.6001C16.9031 81.6001 16.5023 82.0303 16.5023 82.561C16.5023 83.0916 16.9031 83.5219 17.3975 83.5219C17.8919 83.5219 18.2927 83.0916 18.2927 82.561Z" fill="white"/>
<path d="M15.0374 79.6782C15.0374 78.7615 14.345 78.0184 13.491 78.0184C12.637 78.0184 11.9447 78.7615 11.9447 79.6782C11.9447 80.5949 12.637 81.338 13.491 81.338C14.345 81.338 15.0374 80.5949 15.0374 79.6782Z" fill="white"/>
</g>
<defs>
<clipPath id="clip0_126_75">
<rect width="73.6426" height="79.0464" fill="white" transform="translate(26.3573 10)"/>
</clipPath>
<clipPath id="clip1_126_75">
<rect width="51.4314" height="55.2053" fill="white" transform="translate(0 34.7947)"/>
</clipPath>
</defs>
</svg>
