<svg width="100" height="100" viewBox="0 0 100 100" fill="none" xmlns="http://www.w3.org/2000/svg">
<path fill-rule="evenodd" clip-rule="evenodd" d="M15.625 14.0625H92.1875V23.4375H15.625V14.0625Z" fill="#404A68"/>
<path fill-rule="evenodd" clip-rule="evenodd" d="M15.625 23.4375H92.1875V85.9375H15.625V23.4375Z" fill="#ACBEC2"/>
<path fill-rule="evenodd" clip-rule="evenodd" d="M15.625 23.4375V85.9375H62.1399C71.1637 77.7936 78.7107 67.5627 83.8734 56.4751C89.036 45.3875 91.5946 33.9151 91.2415 23.4375H15.625Z" fill="#E8EDEE"/>
<path fill-rule="evenodd" clip-rule="evenodd" d="M18.75 12.5C16.1797 12.5 14.0625 14.6172 14.0625 17.1875V79.6875C14.0625 80.5505 14.7621 81.25 15.625 81.25C16.4879 81.25 17.1875 80.5505 17.1875 79.6875V17.1875C17.1875 16.306 17.8685 15.625 18.75 15.625H89.0625C89.944 15.625 90.625 16.306 90.625 17.1875V21.875H25C24.1371 21.875 23.4375 22.5746 23.4375 23.4375C23.4375 24.3005 24.1371 25 25 25H90.625V82.8125C90.625 83.694 89.944 84.375 89.0625 84.375H12.5C11.6371 84.375 10.9375 85.0746 10.9375 85.9375C10.9375 86.8005 11.6371 87.5 12.5 87.5H89.0625C91.6328 87.5 93.75 85.3828 93.75 82.8125C93.75 60.9375 93.75 39.0625 93.75 17.1875C93.75 14.6172 91.6328 12.5 89.0625 12.5H18.75Z" fill="black"/>
<path fill-rule="evenodd" clip-rule="evenodd" d="M85.9375 17.1875C85.0746 17.1875 84.375 17.8871 84.375 18.75C84.375 19.613 85.0746 20.3125 85.9375 20.3125C86.8004 20.3125 87.5 19.613 87.5 18.75C87.5 17.8871 86.8004 17.1875 85.9375 17.1875Z" fill="white"/>
<path fill-rule="evenodd" clip-rule="evenodd" d="M79.6875 17.1875C78.8246 17.1875 78.125 17.8871 78.125 18.75C78.125 19.613 78.8246 20.3125 79.6875 20.3125C80.5504 20.3125 81.25 19.613 81.25 18.75C81.25 17.8871 80.5504 17.1875 79.6875 17.1875Z" fill="white"/>
<path fill-rule="evenodd" clip-rule="evenodd" d="M73.4375 17.1875C72.5746 17.1875 71.875 17.8871 71.875 18.75C71.875 19.613 72.5746 20.3125 73.4375 20.3125C74.3004 20.3125 75 19.613 75 18.75C75 17.8871 74.3004 17.1875 73.4375 17.1875Z" fill="white"/>
<path fill-rule="evenodd" clip-rule="evenodd" d="M7.8125 84.375C7.3981 84.375 7.00069 84.5396 6.70767 84.8326C6.41464 85.1257 6.25 85.5231 6.25 85.9375C6.25 86.3519 6.41464 86.7493 6.70767 87.0424C7.00069 87.3354 7.3981 87.5 7.8125 87.5C8.2269 87.5 8.62431 87.3354 8.91733 87.0424C9.21036 86.7493 9.375 86.3519 9.375 85.9375C9.375 85.5231 9.21036 85.1257 8.91733 84.8326C8.62431 84.5396 8.2269 84.375 7.8125 84.375Z" fill="black"/>
<path fill-rule="evenodd" clip-rule="evenodd" d="M20.3125 21.875C19.4496 21.875 18.75 22.5746 18.75 23.4375C18.75 24.3005 19.4496 25 20.3125 25C21.1754 25 21.875 24.3005 21.875 23.4375C21.875 22.5746 21.1754 21.875 20.3125 21.875Z" fill="black"/>
<path d="M73.4375 37.5H34.375C32.6491 37.5 31.25 38.8991 31.25 40.625V68.75C31.25 70.4759 32.6491 71.875 34.375 71.875H73.4375C75.1634 71.875 76.5625 70.4759 76.5625 68.75V40.625C76.5625 38.8991 75.1634 37.5 73.4375 37.5Z" fill="#2B3A67"/>
<path d="M76.5625 37.5H31.25V46.875H76.5625V37.5Z" fill="#67A9C5"/>
<path fill-rule="evenodd" clip-rule="evenodd" d="M34.375 37.5C32.6437 37.5 31.25 38.8937 31.25 40.625V68.75C31.25 70.4813 32.6437 71.875 34.375 71.875H64.975C69.6465 67.2449 72.2155 61.3537 72.2198 55.2612C72.2178 48.635 69.183 42.2678 63.7543 37.5H34.375Z" fill="#404A68"/>
<path fill-rule="evenodd" clip-rule="evenodd" d="M31.25 37.5V46.875H69.6716C69.7792 46.3567 69.8362 45.8349 69.8425 45.3125C69.8419 42.5051 68.3761 39.77 65.6555 37.5H31.25Z" fill="#B9D2DA"/>
<path fill-rule="evenodd" clip-rule="evenodd" d="M34.375 35.9375C31.8052 35.9375 29.6875 38.0552 29.6875 40.625C29.6875 43.161 29.6875 45.697 29.6875 48.233C29.6875 49.096 30.3871 49.7955 31.25 49.7955C32.1129 49.7955 32.8125 49.096 32.8125 48.233V46.875H75V62.5427C75 63.4057 75.6996 64.1052 76.5625 64.1052C77.4254 64.1052 78.125 63.4057 78.125 62.5427C78.125 55.2368 78.125 47.9309 78.125 40.625C78.125 38.0552 76.0073 35.9375 73.4375 35.9375H34.375ZM34.375 39.0625H73.4375C74.3302 39.0625 75 39.7323 75 40.625V43.75H32.8125V40.625C32.8125 39.7323 33.4823 39.0625 34.375 39.0625ZM31.25 53.125C30.3871 53.125 29.6875 53.8246 29.6875 54.6875V68.75C29.6875 71.3198 31.8052 73.4375 34.375 73.4375H73.4375C76.0073 73.4375 78.125 71.3198 78.125 68.75C78.125 67.8871 77.4254 67.1875 76.5625 67.1875C75.6996 67.1875 75 67.8871 75 68.75C75 69.6427 74.3302 70.3125 73.4375 70.3125H34.375C33.4823 70.3125 32.8125 69.6427 32.8125 68.75V54.6875C32.8125 53.8246 32.1129 53.125 31.25 53.125Z" fill="black"/>
<path fill-rule="evenodd" clip-rule="evenodd" d="M46.289 50.3418C46.1288 50.2134 45.9448 50.1179 45.7476 50.0607C45.5504 50.0036 45.3439 49.9858 45.1398 50.0085C44.9358 50.0311 44.7381 50.0938 44.5583 50.1929C44.3785 50.292 44.22 50.4255 44.0918 50.5859L37.8418 58.3984C37.6199 58.6755 37.499 59.02 37.499 59.375C37.499 59.73 37.6199 60.0744 37.8418 60.3515L44.0918 68.164C44.22 68.3244 44.3785 68.458 44.5583 68.5571C44.7381 68.6561 44.9358 68.7188 45.1398 68.7415C45.3439 68.7642 45.5504 68.7464 45.7476 68.6892C45.9448 68.632 46.1288 68.5365 46.289 68.4082C46.4494 68.28 46.583 68.1214 46.682 67.9416C46.7811 67.7618 46.8438 67.5642 46.8665 67.3601C46.8892 67.1561 46.8714 66.9495 46.8142 66.7524C46.757 66.5552 46.6615 66.3712 46.5332 66.2109L41.0644 59.375L46.5332 52.539C46.6615 52.3788 46.757 52.1948 46.8142 51.9976C46.8714 51.8004 46.8892 51.5939 46.8665 51.3898C46.8438 51.1857 46.7811 50.9882 46.682 50.8083C46.583 50.6285 46.4494 50.47 46.289 50.3418Z" fill="white"/>
<path fill-rule="evenodd" clip-rule="evenodd" d="M61.5234 50.3418C61.363 50.47 61.2295 50.6285 61.1304 50.8083C61.0313 50.9882 60.9686 51.1857 60.946 51.3898C60.9233 51.5939 60.941 51.8004 60.9982 51.9976C61.0554 52.1948 61.1509 52.3788 61.2793 52.539L66.748 59.375L61.2793 66.2109C61.1509 66.3712 61.0554 66.5552 60.9982 66.7524C60.941 66.9495 60.9233 67.1561 60.946 67.3601C60.9686 67.5642 61.0313 67.7618 61.1304 67.9416C61.2295 68.1214 61.363 68.28 61.5234 68.4082C61.6837 68.5365 61.8677 68.632 62.0649 68.6892C62.2621 68.7464 62.4686 68.7642 62.6726 68.7415C62.8767 68.7188 63.0743 68.6561 63.2541 68.5571C63.434 68.458 63.5925 68.3244 63.7207 68.164L69.9707 60.3515C70.1925 60.0744 70.3134 59.73 70.3134 59.375C70.3134 59.02 70.1925 58.6755 69.9707 58.3984L63.7207 50.5859C63.5925 50.4255 63.434 50.292 63.2541 50.1929C63.0743 50.0938 62.8767 50.0311 62.6726 50.0085C62.4686 49.9858 62.2621 50.0036 62.0649 50.0607C61.8677 50.1179 61.6837 50.2134 61.5234 50.3418Z" fill="white"/>
<path fill-rule="evenodd" clip-rule="evenodd" d="M57.2631 48.5382C56.8758 48.6836 56.5619 48.9766 56.3903 49.3531L48.5778 66.5406C48.4063 66.9177 48.3916 67.3476 48.5369 67.7356C48.6823 68.1237 48.9758 68.438 49.353 68.6097C49.7302 68.7812 50.16 68.7959 50.548 68.6506C50.9361 68.5052 51.2505 68.2117 51.4221 67.8345L59.2346 50.647C59.4061 50.2698 59.4209 49.84 59.2755 49.4519C59.1301 49.0639 58.8366 48.7495 58.4594 48.5779C58.2724 48.493 58.0705 48.4458 57.8652 48.439C57.66 48.4322 57.4554 48.4659 57.2631 48.5382Z" fill="white"/>
</svg>
